HIERARCHY
ROOT Hips
{
	OFFSET 0.00000 0.00000 0.00000
	CHANNELS 6 Xposition Yposition Zposition Zrotation Yrotation Xrotation 
	JOINT LHipJoint
	{
		OFFSET 0 0 0
		CHANNELS 3 Zrotation Yrotation Xrotation
		JOINT LeftHip
		{
			OFFSET 1.82298 -1.58346 0.87084
			CHANNELS 3 Zrotation Yrotation Xrotation
			JOINT LeftKnee
			{
				OFFSET 2.43790 -6.69809 0.00000
				CHANNELS 3 Zrotation Yrotation Xrotation
				JOINT LeftAnkle
				{
					OFFSET 2.59288 -7.12389 0.00000
					CHANNELS 3 Zrotation Yrotation Xrotation
					JOINT LeftToe
					{
						OFFSET 0.14552 -0.39981 2.13160
						CHANNELS 3 Zrotation Yrotation Xrotation
						End Site
						{
							OFFSET 0.00000 -0.00000 1.09427
						}
					}
				}
			}
		}
	}
	JOINT RHipJoint
	{
		OFFSET 0 0 0
		CHANNELS 3 Zrotation Yrotation Xrotation
		JOINT RightHip
		{
			OFFSET -1.77229 -1.58346 0.87084
			CHANNELS 3 Zrotation Yrotation Xrotation
			JOINT RightKnee
			{
				OFFSET -2.50703 -6.88801 0.00000
				CHANNELS 3 Zrotation Yrotation Xrotation
				JOINT RightAnkle
				{
					OFFSET -2.61620 -7.18796 0.00000
					CHANNELS 3 Zrotation Yrotation Xrotation
					JOINT RightToe
					{
						OFFSET -0.15190 -0.41735 2.15974
						CHANNELS 3 Zrotation Yrotation Xrotation
						End Site
						{
							OFFSET -0.00000 -0.00000 1.10919
						}
					}
				}
			}
		}
	}
	JOINT lowerback
	{
		OFFSET 0 0 0
		CHANNELS 3 Zrotation Yrotation Xrotation
		JOINT Chest
		{
			OFFSET -0.03602 2.12423 -0.30249
			CHANNELS 3 Zrotation Yrotation Xrotation
			JOINT Chest2
			{
				OFFSET 0.02717 2.10043 0.12912
				CHANNELS 3 Zrotation Yrotation Xrotation
				JOINT lowerneck
				{
					OFFSET 0 0 0
					CHANNELS 3 Zrotation Yrotation Xrotation
					JOINT Neck
					{
						OFFSET -0.06371 1.88656 0.11602
						CHANNELS 3 Zrotation Yrotation Xrotation
						JOINT Head
						{
							OFFSET 0.08208 1.87759 -0.11505
							CHANNELS 3 Zrotation Yrotation Xrotation
							End Site
							{
								OFFSET 0.03382 1.93090 -0.05483
							}
						}
					}
				}
				JOINT LeftCollar
				{
					OFFSET 0 0 0
					CHANNELS 3 Zrotation Yrotation Xrotation
					JOINT LeftShoulder
					{
						OFFSET 3.30903 1.40357 0.20156
CHANNELS 3 Zrotation Xrotation Yrotation
						JOINT LeftElbow
						{
OFFSET 0 -5.433010 0.000000
CHANNELS 3 Zrotation Xrotation Yrotation
							JOINT LeftWrist
							{
OFFSET 0 -3.159360 0.000000
CHANNELS 3 Zrotation Xrotation Yrotation
								JOINT lhand
								{
									OFFSET 0 0 0
CHANNELS 3 Zrotation Xrotation Yrotation
									JOINT LFingers
									{
OFFSET 0 -0.712830 0.000000
CHANNELS 3 Zrotation Xrotation Yrotation
										End Site
										{
OFFSET 0 -0.574700 0.000000
										}
									}
								}
								JOINT LThumb
								{
OFFSET 0 0.000000 0.000000
CHANNELS 3 Zrotation Xrotation Yrotation
									End Site
									{
OFFSET 0 -0.583470 0.583470
									}
								}
							}
						}
					}
				}
				JOINT RightCollar
				{
					OFFSET 0 0 0
					CHANNELS 3 Zrotation Yrotation Xrotation
					JOINT RightShoulder
					{
						OFFSET -3.12947 1.60037 -0.00464
CHANNELS 3 Zrotation Xrotation Yrotation
						JOINT RightElbow
						{
OFFSET 0 -5.341940 0.000000
CHANNELS 3 Zrotation Xrotation Yrotation
							JOINT RightWrist
							{
OFFSET 0 -3.193510 0.000000
CHANNELS 3 Zrotation Xrotation Yrotation
								JOINT rhand
								{
									OFFSET 0 0 0
CHANNELS 3 Zrotation Xrotation Yrotation
									JOINT RFingers
									{
OFFSET 0 -0.743860 0.000000
CHANNELS 3 Zrotation Xrotation Yrotation
										End Site
										{
OFFSET 0 -0.599720 0.000000
										}
									}
								}
								JOINT RThumb
								{
OFFSET 0 0.000000 0.000000
CHANNELS 3 Zrotation Xrotation Yrotation
									End Site
									{
OFFSET 0 -0.608880 0.608880
									}
								}
							}
						}
					}
				}
			}
		}
	}
}
MOTION
Frames: 11
Frame Time: 0.008333333333333333
3.035191 13.399484 -24.450975 -176.974132 31.098176 180.344973 0.000000 0.000000 0.000000 -3.621258 16.661500 -40.537542 19.708315 19.997926 89.147064 4.779585 6.607832 -43.874548 0.507029 -4.564569 -12.670649 0.000000 0.000000 0.000000 0.088412 -18.630799 -59.615719 -12.766293 -18.696060 68.397974 -0.731152 13.747831 -16.853540 -5.777498 14.209182 -44.082022 -3.766316 -0.634749 17.353660 4.154255 -1.038319 -0.699497 7.004589 -0.088583 -10.408505 -15.205788 -15.418277 6.206800 15.955748 -21.550575 -1.045912 6.519996 -10.960798 2.093791 0.000000 0.000000 0.000000 12.996983 16.079617 -73.359792 127.349023 -54.010180 91.694564 -34.372806 -105.630296 -33.726104 0.000000 0.000000 0.000000 -7.125000 0.000000 0.000000 -65.771515 52.389776 18.349585 0.000000 0.000000 0.000000 -31.843909 -26.675324 -6.857858 -96.030860 -59.861953 -65.220448 -55.014081 83.526103 41.220373 0.000000 0.000000 0.000000 7.125000 0.000000 0.000000 -69.271468 81.641321 61.184070
3.213571 13.283902 -24.457975 -176.822861 30.377114 180.936543 0.000000 0.000000 0.000000 -2.457356 17.579087 -41.846448 20.192723 19.999085 90.563409 4.838212 5.637455 -43.738598 0.601551 -4.964766 -13.808029 0.000000 0.000000 0.000000 0.647899 -20.164748 -61.383080 -13.553645 -18.973029 70.836565 -1.091595 13.101690 -19.514143 -6.184782 14.605011 -45.718768 -4.437780 -0.588574 17.775490 4.355289 -1.094803 -0.588200 7.654409 -0.064152 -10.502048 -15.171323 -15.761325 6.513203 16.372174 -22.022831 -1.439582 6.626640 -11.216868 2.048470 0.000000 0.000000 0.000000 14.230265 16.342576 -74.105835 126.803112 -54.206156 91.252266 -31.073740 -104.968562 -33.167241 0.000000 0.000000 0.000000 -7.125000 0.000000 0.000000 -62.857854 52.691531 17.366174 0.000000 0.000000 0.000000 -34.239183 -25.604821 -6.601952 -91.034634 -59.995891 -60.896027 -54.949574 82.337448 40.968114 0.000000 0.000000 0.000000 7.125000 0.000000 0.000000 -67.833192 81.449701 59.630583
3.162369 13.279988 -24.427682 -176.646957 30.802325 181.921144 0.000000 0.000000 0.000000 -2.807140 15.826599 -42.872157 20.413180 19.995907 91.208128 4.464606 7.783559 -43.026236 0.783693 -5.651623 -15.776978 0.000000 0.000000 0.000000 -0.072973 -16.414840 -61.244004 -13.388289 -18.917836 70.327269 -0.998268 9.887557 -18.110577 -6.177262 14.598000 -45.689188 -4.159501 -0.273286 17.756311 4.239919 -0.624791 -0.386678 7.228474 0.130456 -10.345011 -15.003541 -15.952326 6.972440 16.966616 -22.196894 -3.073249 6.872284 -11.349596 1.577859 0.000000 0.000000 0.000000 15.072318 16.866286 -74.511560 127.318235 -54.021398 91.669625 -31.126535 -103.395540 -31.695314 0.000000 0.000000 0.000000 -7.125000 0.000000 0.000000 -61.332932 51.770081 14.877934 0.000000 0.000000 0.000000 -36.437497 -24.855408 -7.265079 -90.019840 -60.000000 -60.017189 -55.122514 81.649494 41.184016 0.000000 0.000000 0.000000 7.125000 0.000000 0.000000 -69.696258 81.595506 61.552598
2.581969 13.655149 -24.441889 -179.367222 38.137288 182.804048 0.000000 0.000000 0.000000 -9.885724 13.336914 -41.950591 18.802761 19.965386 86.497536 3.570592 14.056400 -42.478822 0.634193 -5.095132 -14.180174 0.000000 0.000000 0.000000 -3.053860 -6.242765 -60.920211 -10.770982 -17.820367 62.034500 -0.332878 7.530671 -10.798735 -5.748184 14.179618 -43.962095 -4.871586 0.421469 17.594537 3.106045 -0.019418 -0.282021 6.205728 0.388308 -10.228254 -13.654133 -15.078459 6.433392 17.618246 -20.650284 -4.975280 7.089526 -10.600562 0.806816 0.000000 0.000000 0.000000 15.151261 11.488915 -79.005031 122.790598 -55.518949 87.970177 -25.855650 -97.589380 -24.923197 0.000000 0.000000 0.000000 -7.125000 0.000000 0.000000 -51.373074 48.063309 5.205141 0.000000 0.000000 0.000000 -39.438025 -25.314878 -4.186896 -89.050604 -59.996565 -59.177744 -56.581723 85.292753 41.362677 0.000000 0.000000 0.000000 7.125000 0.000000 0.000000 -78.083225 81.501106 69.551331
1.465208 14.357586 -24.673050 -183.491085 54.571444 183.802217 0.000000 0.000000 0.000000 -17.557725 6.690207 -38.257856 15.802743 19.571635 77.643151 2.563341 16.761650 -39.798963 0.839729 -5.843907 -16.332546 0.000000 0.000000 0.000000 -0.272114 1.049894 -65.378782 -6.508216 -14.903090 46.988326 0.165515 7.421239 4.843797 -1.375567 7.421898 -20.971437 -5.647966 1.220731 18.248084 2.125152 0.689651 -0.704509 5.389130 0.758664 -11.178197 -10.904069 -11.824760 3.315685 14.963087 -15.698227 -6.140928 6.133776 -7.998852 -0.249527 0.000000 0.000000 0.000000 11.636931 2.241348 -80.184077 114.541829 -57.596290 81.082282 -10.281923 -85.505556 -27.212151 0.000000 0.000000 0.000000 -7.125000 0.000000 0.000000 -40.767736 52.400163 8.577125 0.000000 0.000000 0.000000 -43.702041 -31.851679 -0.577075 -80.914993 -59.682403 -52.140715 -58.928942 87.656157 43.038801 0.000000 0.000000 0.000000 7.125000 0.000000 0.000000 -90.762517 -81.704328 -99.151788
0.508537 14.585292 -25.099820 -191.191154 74.062549 176.887935 0.000000 0.000000 0.000000 -22.163255 0.821709 -31.948530 13.995890 19.112639 72.191793 2.826256 15.850309 -40.343959 1.174890 -6.879934 -19.360037 0.000000 0.000000 0.000000 14.872489 -1.483769 -75.081453 -14.209154 -19.162434 72.831589 1.869393 24.786071 0.439380 -0.723191 -5.364557 14.968806 -6.613200 2.901967 18.125672 0.799805 2.545574 -0.857548 3.936415 1.641553 -11.518976 -8.923280 -7.512185 2.405085 11.135835 -9.949946 -4.608448 4.821254 -5.051334 -0.721095 0.000000 0.000000 0.000000 7.548816 -16.845607 -83.556379 106.546861 -58.939406 74.278879 -4.387740 -77.935842 -16.549947 0.000000 0.000000 0.000000 -7.125000 0.000000 0.000000 -29.272051 44.347250 -0.501057 0.000000 0.000000 0.000000 -46.829887 -38.624827 1.210497 -60.180735 -56.346963 -34.493919 -54.568281 79.896879 44.174363 0.000000 0.000000 0.000000 7.125000 0.000000 0.000000 -83.726609 83.691643 77.386806
-0.070803 14.746445 -25.428428 -208.666209 85.144173 159.237359 0.000000 0.000000 0.000000 -24.801315 -4.036648 -28.067131 12.479879 18.586229 67.501859 2.813359 18.056634 -41.938599 0.836681 -5.835044 -16.306644 0.000000 0.000000 0.000000 15.331652 -6.959938 -68.454840 -24.276638 -19.555418 102.593777 -0.661803 13.169112 -16.061240 -5.841153 -14.272559 44.340680 -5.684526 1.041075 16.858643 0.118704 0.248127 -1.472357 3.296174 0.478179 -11.170782 -5.194430 -2.314217 0.602359 7.249184 -3.009196 -1.952032 3.253116 -1.516368 -0.519703 0.000000 0.000000 0.000000 -13.997433 -51.086630 -114.325208 132.319301 -52.013864 95.665560 12.314279 -29.127520 -13.147939 0.000000 0.000000 0.000000 -7.125000 0.000000 0.000000 -13.592735 43.009454 -0.686083 0.000000 0.000000 0.000000 -35.999860 -51.503945 20.363367 -38.363482 -47.069712 -17.231329 -24.116887 43.697767 48.918398 0.000000 0.000000 0.000000 7.125000 0.000000 0.000000 42.245678 78.843520 -34.155554
-0.052845 14.989394 -25.580913 -367.755249 78.600939 -0.860363 0.000000 0.000000 0.000000 -19.538608 -2.898086 -30.430170 15.934180 19.593474 78.032322 1.176564 13.021061 -28.891598 1.682368 -8.169948 -23.231818 0.000000 0.000000 0.000000 13.374506 -5.404579 -42.850822 -19.318379 -19.978409 88.005933 -0.088345 12.069050 -9.592804 -2.705963 -10.165925 29.550549 -4.608181 2.249507 16.206584 0.366007 2.109136 -2.382198 2.462730 1.323054 -11.974052 -1.722163 0.957776 -2.116559 4.908200 1.256126 1.500699 1.840419 0.679703 0.781467 0.000000 0.000000 0.000000 -58.349129 -63.641593 -168.006402 137.241178 -49.618733 99.482168 58.167323 44.930488 -39.422376 0.000000 0.000000 0.000000 -7.125000 0.000000 0.000000 77.183339 79.710356 -67.062676 0.000000 0.000000 0.000000 -25.241845 -50.386490 58.476945 -53.126211 -54.174750 -28.692040 -5.605254 -10.277595 42.795205 0.000000 0.000000 0.000000 7.125000 0.000000 0.000000 44.186550 68.019088 -26.319802
0.295306 15.069296 -25.592798 -373.010477 60.171119 -5.658114 0.000000 0.000000 0.000000 -6.108231 3.609520 -44.795837 21.919470 19.911341 95.620096 0.588106 2.573041 -15.645520 0.111621 -2.152903 -5.928442 0.000000 0.000000 0.000000 17.272295 -3.141481 -25.315411 -10.806494 -17.839047 62.151485 -3.700165 20.371992 -35.725838 -0.091972 -1.098285 3.035617 -0.530381 3.524047 14.868955 1.764817 4.853560 -3.730518 0.998745 2.406308 -12.710324 -0.480216 5.387642 -3.367359 2.494755 7.102775 6.080732 1.087720 3.607383 2.384248 0.000000 0.000000 0.000000 -6.019037 -77.321837 -94.991234 129.723188 -53.104469 93.604088 51.746328 70.340098 -33.795792 0.000000 0.000000 0.000000 -7.125000 0.000000 0.000000 38.450979 74.316041 -27.651847 0.000000 0.000000 0.000000 -14.953629 -37.257809 79.525402 -88.800845 -59.973348 -58.961596 6.107009 -44.861625 40.678354 0.000000 0.000000 0.000000 7.125000 0.000000 0.000000 51.571651 63.156113 -26.132101
0.821730 15.044703 -25.552101 -370.931219 45.584486 -3.825388 0.000000 0.000000 0.000000 1.493968 12.631048 -50.643062 13.884099 19.077843 71.849655 1.165149 1.741976 -21.089669 0.382803 -3.973531 -11.002301 0.000000 0.000000 0.000000 16.074158 1.133566 -25.258365 -10.793605 -17.832550 62.109559 -3.067703 23.240302 -33.413143 -0.018307 -0.866932 2.382698 1.346580 4.968857 16.304049 3.440736 7.354784 -2.393077 1.073537 3.522161 -12.115063 3.839713 9.092174 -6.229872 -4.552593 12.194735 6.214724 -1.492187 5.969595 3.708353 0.000000 0.000000 0.000000 48.530688 -44.444517 -8.409935 114.719011 -57.554787 81.230811 82.378429 60.180336 -49.481061 0.000000 0.000000 0.000000 -7.125000 0.000000 0.000000 156.956544 -65.919678 168.084723 0.000000 0.000000 0.000000 -17.217525 -8.832907 68.109981 -111.217014 -58.228751 -78.265171 41.185191 -92.524386 26.463083 0.000000 0.000000 0.000000 7.125000 0.000000 0.000000 61.940730 46.557553 -3.949278
1.332077 15.042404 -25.143246 -372.143104 56.551796 -8.622282 0.000000 0.000000 0.000000 -0.456121 9.298597 -55.195227 13.971818 19.104895 72.117869 0.217992 0.794359 -9.117380 0.000402 0.096334 0.264667 0.000000 0.000000 0.000000 16.255608 -7.844828 -16.757053 -9.598494 -17.177554 58.137403 -3.377544 18.643021 -33.864181 -0.224507 -2.955932 8.162419 2.556285 3.314581 14.795352 3.778018 5.308116 -1.482304 1.410114 2.538851 -10.074345 4.290815 7.512366 -5.886401 -2.789329 9.992736 8.982505 -1.096974 4.962973 4.433041 0.000000 0.000000 0.000000 36.538459 -60.240728 8.032193 23.348951 -34.456550 7.339758 48.990272 -7.034336 -24.547798 0.000000 0.000000 0.000000 -7.125000 0.000000 0.000000 25.689608 62.987053 -11.580091 0.000000 0.000000 0.000000 -9.762189 18.361408 37.522385 -127.982190 -53.742033 -92.197043 44.487845 -99.394295 16.248362 0.000000 0.000000 0.000000 7.125000 0.000000 0.000000 53.179225 37.312114 16.733867
